{"title":"Into the Blue 2005 BRRip H264 AAC-Rx(Phoenix-RG)","uid":5788686,"size":1943805950,"categoryP":"video","categoryS":"hd___movies","magnet":"?xt=urn:btih:4e5acd7e9266d83aec743fff7088cc497ab0ba34&amp;dn=Into+the+Blue+2005+BRRip+H264+AAC-Rx%28Phoenix-RG%29&amp;tr=udp%3A%2F%2Ftracker.openbittorrent.com%3A80&amp;tr=udp%3A%2F%2Fopen.demonii.com%3A1337&amp;tr=udp%3A%2F%2Ftracker.coppersurfer.tk%3A6969&amp;tr=udp%3A%2F%2Fexodus.desync.com%3A6969","seeders":1,"leechers":0,"uploader":"rev-x","files":7,"time":1282754311,"description":" Into the Blue 2005 BRRip H264 AAC-Rx(Phoenix-RG).mp4\n      Format : MPEG-4 /AVC\n      File size : 1.81 GiB\n      Duration : 1h 50mn\n      Encoding : 2 Pass\n      Format profile : &lt;a class=&quot;__cf_email__&quot; href=&quot;/cdn-cgi/l/email-protection&quot; data-cfemail=&quot;2169484649616d150f10&quot;&gt;[email&amp;#160;protected]&lt;/a&gt;&lt;script data-cfhash='f9e31' type=&quot;text/javascript&quot;&gt;\n/* &lt;![CDATA[ */!function(){try{var t=&quot;currentScript&quot;in document?document.currentScript:function(){for(var t=document.getElementsByTagName(&quot;script&quot;),e=t.length;e--;)if(t[e].getAttribute(&quot;data-cfhash&quot;))return t[e]}();if(t&amp;&amp;t.previousSibling){var e,r,n,i,c=t.previousSibling,a=c.getAttribute(&quot;data-cfemail&quot;);if(a){for(e=&quot;&quot;,r=parseInt(a.substr(0,2),16),n=2;a.length-n;n+=2)i=parseInt(a.substr(n,2),16)^r,e+=String.fromCharCode(i);e=document.createTextNode(e),c.parentNode.replaceChild(e,c)}t.parentNode.removeChild(t);}}catch(u){}}()/* ]]&gt; */&lt;/script&gt;\n      Format settings, CABAC : Yes\n      Bit rate : 2 030 Kbps\n      Width : 1 280 pixels\n      Height : 544 pixels\n      Display aspect ratio : 2.35\n      Frame rate : 23.976 fps\n      Resolution : 24 bits\n      Colorimetry : 4:2:0\n      Scan type : Progressive\n      Bits/(Pixel*Frame) : 0.122\n      Stream size : 1.56 GiB (86%)\n    \n     \n   Audio #2\n      Format : AAC /LC\n      Format/Info : Advanced Audio Codec\n      Duration : 1h 50mn\n      Bit rate : 317 Kbps\n      Channel(s) : 6 channels\n      Channel positions : Front: L C R, Rear: L R, LFE\n      Sampling rate : 48.0 KHz\n      Resolution : 16 bits\n      Stream size : 250 MiB (13%)\n\n\nSCREEN:\n &lt;a href=&quot;\nhttp://img836.imageshack.us/img836/6589/vlcsnap2010082514h25m53.jpg&quot; rel=&quot;nofollow&quot; target=&quot;_NEW&quot;&gt;\nhttp://img836.imageshack.us/img836/6589/vlcsnap2010082514h25m53.jpg&lt;/a&gt;\n &lt;a href=&quot;\nhttp://img831.imageshack.us/img831/6076/vlcsnap2010082514h28m11.jpg&quot; rel=&quot;nofollow&quot; target=&quot;_NEW&quot;&gt;\nhttp://img831.imageshack.us/img831/6076/vlcsnap2010082514h28m11.jpg&lt;/a&gt;\n &lt;a href=&quot;\nhttp://img832.imageshack.us/img832/2647/vlcsnap2010082514h34m26.jpg&quot; rel=&quot;nofollow&quot; target=&quot;_NEW&quot;&gt;\nhttp://img832.imageshack.us/img832/2647/vlcsnap2010082514h34m26.jpg&lt;/a&gt;\n","torrent":{"xt":"urn:btih:4e5acd7e9266d83aec743fff7088cc497ab0ba34","amp;dn":"Into+the+Blue+2005+BRRip+H264+AAC-Rx%28Phoenix-RG%29","amp;tr":["udp%3A%2F%2Ftracker.openbittorrent.com%3A80","udp%3A%2F%2Fopen.demonii.com%3A1337","udp%3A%2F%2Ftracker.coppersurfer.tk%3A6969","udp%3A%2F%2Fexodus.desync.com%3A6969"],"infoHash":"4e5acd7e9266d83aec743fff7088cc497ab0ba34","infoHashBuffer":{"type":"Buffer","data":[78,90,205,126,146,102,216,58,236,116,63,255,112,136,204,73,122,176,186,52]},"announce":[],"urlList":[]}}